<svg width="64" height="64" viewBox="0 0 64 64" fill="none" xmlns="http://www.w3.org/2000/svg">
  <rect width="64" height="64" rx="8" fill="#1A237E"/>
  <path d="M32 18C28.134 18 25 21.134 25 25V30H22V46H42V30H39V25C39 21.134 35.866 18 32 18ZM32 21C34.209 21 36 22.791 36 25V30H28V25C28 22.791 29.791 21 32 21ZM32 35C33.657 35 35 36.343 35 38C35 39.105 34.4 40.07 33.5 40.586V43H30.5V40.586C29.6 40.07 29 39.105 29 38C29 36.343 30.343 35 32 35Z" fill="white"/>
  <rect x="15" y="15" width="34" height="34" rx="2" stroke="#4FC3F7" stroke-width="2" stroke-dasharray="4 2"/>
</svg>
